<svg xmlns="http://www.w3.org/2000/svg" viewBox="0 0 64 64" role="img" aria-label="Stint">
  <rect width="64" height="64" rx="12" fill="#06101B"/>
  <path d="M44 19.5C41.4 16.9 37.2 15.4 32.6 15.4C25.4 15.4 20.4 18.8 20.4 24.1C20.4 29 24.2 31.2 30.6 32.7L34.6 33.7C38 34.5 39.4 35.4 39.4 37.1C39.4 39.1 37.2 40.3 33.4 40.3C28.8 40.3 25.2 38.6 22.4 35.6L17.4 41.7C20.8 45.4 26.4 47.6 33 47.6C40.6 47.6 46 44 46 38.4C46 33.4 42.4 31 35.8 29.4L31.8 28.4C28.6 27.6 27 26.8 27 25.2C27 23.4 28.8 22.4 32 22.4C35.6 22.4 38.4 23.7 40.6 25.9L44 19.5Z" fill="#FFFFFF"/>
  <rect x="0" y="58" width="64" height="6" fill="#FF6A1A"/>
</svg>
