<svg xmlns="http://www.w3.org/2000/svg" viewBox="0 0 64 64" role="img" aria-label="STINT favicon">
  <defs>
    <linearGradient id="badge" x1="0" y1="0" x2="1" y2="1">
      <stop offset="0%" stop-color="#F4ECDD"/>
      <stop offset="100%" stop-color="#E5D7C2"/>
    </linearGradient>
  </defs>
  <rect width="64" height="64" rx="18" fill="url(#badge)"/>
  <path d="M14 56C24 50 33 43 41 31C46 23 46 16 41 12C36 8 37 6 49 4C41 7 33 12 28 18C23 24 22 31 25 38C28 46 25 51 14 56Z" fill="#222225"/>
  <path d="M26 52C36 45 43 37 49 27C53 20 53 14 48 10C45 7 45 5 58 4C50 6 42 10 36 15C31 20 30 27 33 32C36 40 34 46 26 52Z" fill="#2A2A2E"/>
  <path d="M27 44L32 41L36 43L31 46Z" fill="#E85B2B"/>
  <path d="M36 33L40 31L44 33L40 36Z" fill="#E85B2B"/>
  <path d="M42 24L46 22L49 24L45 26Z" fill="#E85B2B"/>
</svg>
